<svg width="24" height="42" viewBox="0 0 24 42" fill="none" xmlns="http://www.w3.org/2000/svg">
<path d="M23.1118 19.3612L5.31134 0.67097C4.89964 0.23834 4.35005 0 3.76404 0C3.17802 0 2.62844 0.23834 2.21673 0.67097L0.905849 2.04706C0.0528477 2.94373 0.0528477 4.40109 0.905849 5.2964L15.8534 20.9913L0.889263 36.7036C0.477559 37.1362 0.250244 37.713 0.250244 38.3279C0.250244 38.9436 0.477559 39.5203 0.889263 39.9533L2.20015 41.329C2.61218 41.7617 3.16144 42 3.74745 42C4.33346 42 4.88305 41.7617 5.29476 41.329L23.1118 22.6218C23.5245 22.1878 23.7512 21.6083 23.7499 20.9923C23.7512 20.3739 23.5245 19.7948 23.1118 19.3612Z" fill="#BD8D99"/>
</svg>
