<svg width="18" height="20" viewBox="0 0 18 20" fill="none" xmlns="http://www.w3.org/2000/svg">
<g clip-path="url(#clip0_108_59)">
<path d="M8.09527 15.5558L0.282431 6.65555C0.101583 6.4497 0.00195305 6.1749 0.00195306 5.8819C0.00195307 5.58889 0.101583 5.3141 0.282431 5.10824L0.85766 4.4528C1.23249 4.0263 1.84169 4.0263 2.21594 4.4528L8.77669 11.9266L15.3447 4.44451C15.5256 4.23866 15.7667 4.125 16.0237 4.125C16.2811 4.125 16.5222 4.23866 16.7031 4.44451L17.2782 5.09995C17.4591 5.30597 17.5587 5.5806 17.5587 5.8736C17.5587 6.16661 17.4591 6.4414 17.2782 6.64726L9.45826 15.5558C9.27684 15.7621 9.03462 15.8755 8.77712 15.8748C8.51862 15.8755 8.27654 15.7621 8.09527 15.5558Z" fill="#BD8D99"/>
</g>
<defs>
<clipPath id="clip0_108_59">
<rect width="20" height="17.5568" fill="white" transform="matrix(-3.65443e-08 1 1 5.22841e-08 0.00195312 0)"/>
</clipPath>
</defs>
</svg>
